<?xml version="1.0" encoding="UTF-8" standalone="no"?>
<!-- Created with Inkscape (http://www.inkscape.org/) -->

<svg
   width="64.243172mm"
   height="28.026295mm"
   viewBox="0 0 64.243172 28.026295"
   version="1.1"
   id="svg1"
   xml:space="preserve"
   inkscape:export-filename="pdf1.jpg"
   inkscape:export-xdpi="96"
   inkscape:export-ydpi="96"
   xmlns:inkscape="http://www.inkscape.org/namespaces/inkscape"
   xmlns:sodipodi="http://sodipodi.sourceforge.net/DTD/sodipodi-0.dtd"
   xmlns:xlink="http://www.w3.org/1999/xlink"
   xmlns="http://www.w3.org/2000/svg"
   xmlns:svg="http://www.w3.org/2000/svg"><sodipodi:namedview
     id="namedview1"
     pagecolor="#ffffff"
     bordercolor="#000000"
     borderopacity="0.25"
     inkscape:showpageshadow="2"
     inkscape:pageopacity="0.0"
     inkscape:pagecheckerboard="0"
     inkscape:deskcolor="#d1d1d1"
     inkscape:document-units="mm" /><defs
     id="defs1"><style
       type="text/css"
       id="style1">*{stroke-linecap:butt;stroke-linejoin:round;}</style><path
       d="m -20.048448,-45.361764 v 0 h 5.137863 5.137863 5.137863 5.137864 5.137863 5.137863 5.137864 5.137863 5.137863 5.137863 5.137864 5.137863 5.137863 5.137864 5.137863 5.137863 5.137863 5.137864 5.137863 5.137863 5.137863 5.137864 5.137863 5.137863 5.13786 5.13787 5.13786 5.13786 5.13787 5.13786 5.13786 5.13787 5.13786 5.13786 5.13787 5.13786 5.13786 5.13787 5.13786 5.13786 5.13787 5.13786 5.13786 5.13787 5.13786 5.13786 5.13787 5.13786 5.13786 v -1.867269 0 l -5.13786,-0.460305 -5.13786,-0.563705 -5.13787,-0.686998 -5.13786,-0.832919 -5.13786,-1.004224 -5.13787,-1.203539 -5.13786,-1.433152 -5.13786,-1.694764 -5.13787,-1.989153 -5.13786,-2.315782 -5.13786,-2.672344 -5.13787,-3.054252 -5.13786,-3.454121 -5.13786,-3.861256 -5.13787,-4.261233 -5.13786,-4.635618 -5.13786,-4.961968 -5.13787,-5.214149 -5.13786,-5.363161 -5.13786,-5.378504 -5.13787,-5.23016 -5.13786,-4.89128 -5.13786,-4.34132 -5.13787,-3.56959 -5.13786,-2.57888 -5.137863,-1.3885 -5.137863,-0.0364 -5.137864,1.42022 -5.137863,2.90706 -5.137863,4.3368 -5.137863,5.61638 -5.137864,6.65633 -5.137863,7.38144 -5.137863,7.7412 -5.137863,7.71811 -5.137864,7.33203 -5.137863,6.639103 -5.137863,5.724719 -5.137864,4.691339 -5.137863,3.643217 -5.137863,2.671147 -5.137863,1.840522 -5.137864,1.185286 -5.137863,0.708782 -5.137863,0.390552 -5.137864,0.196518 -5.137863,0.08935 -5.137863,0.03625 z"
       id="m6800b9b1d8"
       style="stroke:#808080" /><clipPath
       id="pf287f6f8ab-9-7"><rect
         height="105.25944"
         width="182.10664"
         x="27.455999"
         y="557.13879"
         id="rect490-9-2" /></clipPath></defs><g
     inkscape:label="Ebene 1"
     inkscape:groupmode="layer"
     id="layer1"
     transform="translate(116.25663,-314.55007)"><g
       id="PolyCollection_1"
       transform="matrix(0.35277777,0,0,0.35277777,-125.9425,108.897)"
       style="stroke-linecap:butt;stroke-linejoin:round"><defs
         id="defs190" /><g
         clip-path="url(#pf287f6f8ab-9-7)"
         id="g191"
         style="stroke-linecap:butt;stroke-linejoin:round"><use
           style="fill:#808080;stroke:#808080;stroke-linecap:butt;stroke-linejoin:round"
           x="0"
           xlink:href="#m6800b9b1d8"
           y="707.76001"
           id="use191" /></g></g></g></svg>
