<?xml version="1.0" encoding="UTF-8" standalone="no"?>
<!-- Created with Inkscape (http://www.inkscape.org/) -->

<svg
   width="64.243172mm"
   height="28.026295mm"
   viewBox="0 0 64.243172 28.026295"
   version="1.1"
   id="svg1"
   xml:space="preserve"
   inkscape:export-filename="pdf1.jpg"
   inkscape:export-xdpi="96"
   inkscape:export-ydpi="96"
   xmlns:inkscape="http://www.inkscape.org/namespaces/inkscape"
   xmlns:sodipodi="http://sodipodi.sourceforge.net/DTD/sodipodi-0.dtd"
   xmlns:xlink="http://www.w3.org/1999/xlink"
   xmlns="http://www.w3.org/2000/svg"
   xmlns:svg="http://www.w3.org/2000/svg"><sodipodi:namedview
     id="namedview1"
     pagecolor="#ffffff"
     bordercolor="#000000"
     borderopacity="0.25"
     inkscape:showpageshadow="2"
     inkscape:pageopacity="0.0"
     inkscape:pagecheckerboard="0"
     inkscape:deskcolor="#d1d1d1"
     inkscape:document-units="mm" /><defs
     id="defs1"><style
       type="text/css"
       id="style1">*{stroke-linecap:butt;stroke-linejoin:round;}</style><path
       d="m 199.81574,-45.361764 v 0 h 5.30922 5.30923 5.30922 5.30922 5.30922 5.30922 5.30922 5.30922 5.30922 5.30923 5.30922 5.30922 5.30922 5.30922 5.30922 5.30922 5.30922 5.30923 5.30922 5.30922 5.30922 5.30922 5.30922 5.30922 5.30922 5.30923 5.30922 5.30922 5.30922 5.30922 5.30922 5.30922 5.30922 5.30923 5.30922 5.30922 5.30922 5.30922 5.30922 5.30922 5.30922 5.30923 5.30922 5.30922 5.30922 5.30922 5.30922 5.30922 5.30922 5.30923 v -0.03971 0 l -5.30923,-0.09289 -5.30922,-0.225138 -5.30922,-0.464111 -5.30922,-0.843129 -5.30922,-1.383235 -5.30922,-2.08551 -5.30922,-2.926815 -5.30922,-3.859934 -5.30923,-4.817986 -5.30922,-5.722132 -5.30922,-6.491067 -5.30922,-7.05068 -5.30922,-7.342411 -5.30922,-7.329269 -5.30922,-6.998951 -5.30922,-6.36398 -5.30923,-5.45924 -5.30922,-4.3374 -5.30922,-3.06326 -5.30922,-1.70741 -5.30922,-0.34032 -5.30922,0.97295 -5.30922,2.17678 -5.30922,3.22765 -5.30923,4.09561 -5.30922,4.76426 -5.30922,5.22991 -5.30922,5.499813 -5.30922,5.590041 -5.30922,5.523 -5.30922,5.325075 -5.30922,5.024385 -5.30923,4.648886 -5.30922,4.224849 -5.30922,3.775763 -5.30922,3.321637 -5.30922,2.878664 -5.30922,2.459192 -5.30922,2.071927 -5.30922,1.722318 -5.30923,1.41302 -5.30922,1.144431 -5.30922,0.915209 -5.30922,0.722774 -5.30922,0.563737 -5.30922,0.434276 -5.30922,0.330426 -5.30922,0.248311 -5.30923,0.184291 z"
       id="m51c34c9e2a"
       style="stroke:#808080" /><clipPath
       id="pc982b7d9ba-7-3"><rect
         height="105.25944"
         width="182.10664"
         x="245.98396"
         y="557.13879"
         id="rect491-0-0" /></clipPath></defs><g
     inkscape:label="Ebene 1"
     inkscape:groupmode="layer"
     id="layer1"
     transform="translate(42.221494,-313.09542)"><g
       id="PolyCollection_2"
       style="stroke-linecap:butt;stroke-linejoin:round"
       transform="matrix(0.35277777,0,0,0.35277777,-128.99917,107.44234)"><defs
         id="defs216" /><g
         clip-path="url(#pc982b7d9ba-7-3)"
         id="g217"
         style="stroke-linecap:butt;stroke-linejoin:round"><use
           style="fill:#808080;stroke:#808080;stroke-linecap:butt;stroke-linejoin:round"
           x="0"
           xlink:href="#m51c34c9e2a"
           y="707.76001"
           id="use217" /></g></g></g></svg>
