<?xml version="1.0" encoding="UTF-8" standalone="no"?>
<!-- Created with Inkscape (http://www.inkscape.org/) -->

<svg
   width="64.243179mm"
   height="28.026262mm"
   viewBox="0 0 64.243179 28.026262"
   version="1.1"
   id="svg1"
   xml:space="preserve"
   inkscape:export-filename="pdf1.jpg"
   inkscape:export-xdpi="96"
   inkscape:export-ydpi="96"
   xmlns:inkscape="http://www.inkscape.org/namespaces/inkscape"
   xmlns:sodipodi="http://sodipodi.sourceforge.net/DTD/sodipodi-0.dtd"
   xmlns:xlink="http://www.w3.org/1999/xlink"
   xmlns="http://www.w3.org/2000/svg"
   xmlns:svg="http://www.w3.org/2000/svg"><sodipodi:namedview
     id="namedview1"
     pagecolor="#ffffff"
     bordercolor="#000000"
     borderopacity="0.25"
     inkscape:showpageshadow="2"
     inkscape:pageopacity="0.0"
     inkscape:pagecheckerboard="0"
     inkscape:deskcolor="#d1d1d1"
     inkscape:document-units="mm" /><defs
     id="defs1"><style
       type="text/css"
       id="style1">*{stroke-linecap:butt;stroke-linejoin:round;}</style><path
       d="m 447.34578,-45.361764 v 0 h 5.27106 5.27105 5.27106 5.27105 5.27105 5.27106 5.27105 5.27106 5.27105 5.27105 5.27106 5.27105 5.27106 5.27105 5.27106 5.27105 5.27105 5.27106 5.27105 5.27106 5.27105 5.27105 5.27106 5.27105 5.27106 5.27105 5.27106 5.27105 5.27105 5.27106 5.27105 5.27106 5.27105 5.27105 5.27106 5.27105 5.27106 5.27105 5.27105 5.27106 5.27105 5.27106 5.27105 5.27106 5.27105 5.27105 5.27106 5.27105 5.27106 v -0.379582 0 l -5.27106,-0.06446 -5.27105,-0.07576 -5.27106,-0.08909 -5.27105,-0.104806 -5.27105,-0.123349 -5.27106,-0.145226 -5.27105,-0.171034 -5.27106,-0.201476 -5.27105,-0.237371 -5.27106,-0.279678 -5.27105,-0.329508 -5.27105,-0.388154 -5.27106,-0.457097 -5.27105,-0.538039 -5.27106,-0.632909 -5.27105,-0.74388 -5.27105,-0.873365 -5.27106,-1.024003 -5.27105,-1.19862 -5.27106,-1.400158 -5.27105,-1.63155 -5.27105,-1.895537 -5.27106,-2.19438 -5.27105,-2.529466 -5.27106,-2.900753 -5.27105,-3.306013 -5.27106,-3.739855 -5.27105,-4.192458 -5.27105,-4.648038 -5.27106,-5.083026 -5.27105,-5.464098 -5.27106,-5.74624 -5.27105,-5.871275 -5.27105,-5.76759 -5.27106,-5.35201 -5.27105,-4.53566 -5.27106,-3.23545 -5.27105,-1.39361 -5.27106,0.99319 -5.27105,3.83601 -5.27105,6.91283 -5.27106,9.83983 -5.27105,12.083105 -5.27106,13.049975 -5.27105,12.293466 -5.27105,9.808878 -5.27106,6.272434 -5.27105,2.918085 z"
       id="m75af691dbf"
       style="stroke:#808080" /><clipPath
       id="p3b1b4b4c43-7-6"><rect
         height="105.25944"
         width="182.10664"
         x="464.51193"
         y="557.13879"
         id="rect492-1-6" /></clipPath></defs><g
     inkscape:label="Ebene 1"
     inkscape:groupmode="layer"
     id="layer1"
     transform="translate(-43.673932,-323.98171)"><g
       id="PolyCollection_3"
       style="stroke-linecap:butt;stroke-linejoin:round"
       transform="matrix(0.35277777,0,0,0.35277777,-120.19555,118.3286)"><defs
         id="defs246" /><g
         clip-path="url(#p3b1b4b4c43-7-6)"
         id="g247"
         style="stroke-linecap:butt;stroke-linejoin:round"><use
           style="fill:#808080;stroke:#808080;stroke-linecap:butt;stroke-linejoin:round"
           x="0"
           xlink:href="#m75af691dbf"
           y="707.76001"
           id="use247" /></g></g></g></svg>
