<?xml version="1.0" encoding="UTF-8" standalone="no"?>
<!-- Created with Inkscape (http://www.inkscape.org/) -->

<svg
   width="64.243179mm"
   height="28.026262mm"
   viewBox="0 0 64.243179 28.026262"
   version="1.1"
   id="svg1"
   xml:space="preserve"
   inkscape:export-filename="pdf1.jpg"
   inkscape:export-xdpi="96"
   inkscape:export-ydpi="96"
   xmlns:inkscape="http://www.inkscape.org/namespaces/inkscape"
   xmlns:sodipodi="http://sodipodi.sourceforge.net/DTD/sodipodi-0.dtd"
   xmlns:xlink="http://www.w3.org/1999/xlink"
   xmlns="http://www.w3.org/2000/svg"
   xmlns:svg="http://www.w3.org/2000/svg"><sodipodi:namedview
     id="namedview1"
     pagecolor="#ffffff"
     bordercolor="#000000"
     borderopacity="0.25"
     inkscape:showpageshadow="2"
     inkscape:pageopacity="0.0"
     inkscape:pagecheckerboard="0"
     inkscape:deskcolor="#d1d1d1"
     inkscape:document-units="mm" /><defs
     id="defs1"><style
       type="text/css"
       id="style1">*{stroke-linecap:butt;stroke-linejoin:round;}</style><path
       d="m 665.44174,-45.361764 v 0 h 4.82878 4.82877 4.82878 4.82877 4.82877 4.82878 4.82877 4.82878 4.82877 4.82877 4.82878 4.82877 4.82877 4.82878 4.82877 4.82878 4.82877 4.82877 4.82878 4.82877 4.82877 4.82878 4.82877 4.82877 4.82878 4.82877 4.82878 4.82877 4.82877 4.82878 4.82877 4.82877 4.82878 4.82877 4.82878 4.82877 4.82877 4.82878 4.82877 4.82878 4.82877 4.82877 4.82878 4.82877 4.82877 4.82878 4.82877 4.82878 4.82877 v -0.914633 0 l -4.82877,-0.151394 -4.82878,-0.176609 -4.82877,-0.205979 -4.82878,-0.240161 -4.82877,-0.279907 -4.82877,-0.326069 -4.82878,-0.379616 -4.82877,-0.441633 -4.82877,-0.513334 -4.82878,-0.596065 -4.82877,-0.691296 -4.82878,-0.800621 -4.82877,-0.925736 -4.82877,-1.068404 -4.82878,-1.230409 -4.82877,-1.413478 -4.82878,-1.619183 -4.82877,-1.848787 -4.82877,-2.103059 -4.82878,-2.382017 -4.82877,-2.684615 -4.82877,-3.008334 -4.82878,-3.348703 -4.82877,-3.698729 -4.82878,-4.048239 -4.82877,-4.383198 -4.82877,-4.684986 -4.82878,-4.9298 -4.82877,-5.088242 -4.82877,-5.12533 -4.82878,-5.00119 -4.82877,-4.67273 -4.82877,-4.09679 -4.82878,-3.23498 -4.82877,-2.06093 -4.82878,-0.56939 -4.82877,1.21239 -4.82877,3.21325 -4.82878,5.30846 -4.82877,7.31664 -4.82877,9.008537 -4.82878,10.134126 -4.82877,10.471796 -4.82878,9.896698 -4.82877,8.452261 -4.82877,6.392168 -4.82878,4.149644 -4.82877,2.206546 z"
       id="m1205a4339b"
       style="stroke:#808080" /><clipPath
       id="p875da6eac9-9-0"><rect
         height="105.25944"
         width="182.10664"
         x="683.03992"
         y="557.13879"
         id="rect493-8-1" /></clipPath></defs><g
     inkscape:label="Ebene 1"
     inkscape:groupmode="layer"
     id="layer1"
     transform="translate(-122.53701,-328.97549)"><g
       id="PolyCollection_4"
       style="stroke-linecap:butt;stroke-linejoin:round"
       transform="matrix(0.35277777,0,0,0.35277777,-118.42429,123.32239)"><defs
         id="defs267" /><g
         clip-path="url(#p875da6eac9-9-0)"
         id="g268"
         style="stroke-linecap:butt;stroke-linejoin:round"><use
           style="fill:#808080;stroke:#808080;stroke-linecap:butt;stroke-linejoin:round"
           x="0"
           xlink:href="#m1205a4339b"
           y="707.76001"
           id="use268" /></g></g></g></svg>
