<?xml version="1.0" encoding="UTF-8" standalone="no"?>
<!-- Created with Inkscape (http://www.inkscape.org/) -->

<svg
   width="64.243187mm"
   height="28.026295mm"
   viewBox="0 0 64.243187 28.026295"
   version="1.1"
   id="svg1"
   xml:space="preserve"
   inkscape:export-filename="pdf1.jpg"
   inkscape:export-xdpi="96"
   inkscape:export-ydpi="96"
   xmlns:inkscape="http://www.inkscape.org/namespaces/inkscape"
   xmlns:sodipodi="http://sodipodi.sourceforge.net/DTD/sodipodi-0.dtd"
   xmlns:xlink="http://www.w3.org/1999/xlink"
   xmlns="http://www.w3.org/2000/svg"
   xmlns:svg="http://www.w3.org/2000/svg"><sodipodi:namedview
     id="namedview1"
     pagecolor="#ffffff"
     bordercolor="#000000"
     borderopacity="0.25"
     inkscape:showpageshadow="2"
     inkscape:pageopacity="0.0"
     inkscape:pagecheckerboard="0"
     inkscape:deskcolor="#d1d1d1"
     inkscape:document-units="mm" /><defs
     id="defs1"><style
       type="text/css"
       id="style1">*{stroke-linecap:butt;stroke-linejoin:round;}</style><path
       d="m 879.34328,-47.003112 v 1.641348 h 4.53112 4.53112 4.53111 4.53112 4.53111 4.53112 4.53111 4.53112 4.53112 4.53111 4.53112 4.53111 4.53112 4.53111 4.53112 4.53111 4.53112 4.53112 4.53111 4.53112 4.53111 4.53112 4.53112 4.53111 4.53112 4.53111 4.53111 4.5311 4.5311 4.5312 4.5311 4.5311 4.5311 4.5311 4.5311 4.5312 4.5311 4.5311 4.5311 4.5311 4.5311 4.5311 4.5312 4.5311 4.5311 4.5311 4.5311 4.5311 4.5312 4.5311 v -1.641348 0 l -4.5311,-0.582366 -4.5312,-0.751886 -4.5311,-0.957068 -4.5311,-1.200876 -4.5311,-1.485031 -4.5311,-1.809509 -4.5311,-2.172028 -4.5312,-2.567569 -4.5311,-2.988001 -4.5311,-3.421877 -4.5311,-3.85442 -4.5311,-4.267821 -4.5311,-4.641799 -4.5311,-4.954513 -4.5312,-5.183726 -4.5311,-5.308216 -4.5311,-5.309321 -4.5311,-5.172481 -4.5311,-4.88869 -4.5311,-4.45558 -4.5312,-3.87829 -4.5311,-3.16961 -4.5311,-2.34968 -4.53111,-1.44515 -4.53111,-0.48772 -4.53112,0.48772 -4.53111,1.44515 -4.53112,2.34968 -4.53112,3.16961 -4.53111,3.87829 -4.53112,4.45558 -4.53111,4.88869 -4.53112,5.172481 -4.53112,5.309321 -4.53111,5.308216 -4.53112,5.183726 -4.53111,4.954513 -4.53112,4.641799 -4.53111,4.267821 -4.53112,3.85442 -4.53111,3.421877 -4.53112,2.988001 -4.53112,2.567569 -4.53111,2.172028 -4.53112,1.809509 -4.53111,1.485031 -4.53112,1.200876 -4.53111,0.957068 -4.53112,0.751886 z"
       id="mead2ec5847"
       style="stroke:#808080" /><clipPath
       id="pd7a6cda3b1-3-2"><rect
         height="105.25944"
         width="182.10664"
         x="901.56787"
         y="557.13879"
         id="rect494-2-2" /></clipPath></defs><g
     inkscape:label="Ebene 1"
     inkscape:groupmode="layer"
     id="layer1"
     transform="translate(-189.44794,-324.56151)"><g
       id="PolyCollection_5"
       style="stroke-linecap:butt;stroke-linejoin:round"
       transform="matrix(0.35277777,0,0,0.35277777,-128.60515,118.90844)"><defs
         id="defs290" /><g
         clip-path="url(#pd7a6cda3b1-3-2)"
         id="g291"
         style="stroke-linecap:butt;stroke-linejoin:round"><use
           style="fill:#808080;stroke:#808080;stroke-linecap:butt;stroke-linejoin:round"
           x="0"
           xlink:href="#mead2ec5847"
           y="707.76001"
           id="use291" /></g></g></g></svg>
