<?xml version="1.0" encoding="UTF-8" standalone="no"?>
<!-- Created with Inkscape (http://www.inkscape.org/) -->

<svg
   width="64.243172mm"
   height="28.026295mm"
   viewBox="0 0 64.243172 28.026295"
   version="1.1"
   id="svg1"
   xml:space="preserve"
   inkscape:export-filename="pdf1.jpg"
   inkscape:export-xdpi="96"
   inkscape:export-ydpi="96"
   xmlns:inkscape="http://www.inkscape.org/namespaces/inkscape"
   xmlns:sodipodi="http://sodipodi.sourceforge.net/DTD/sodipodi-0.dtd"
   xmlns:xlink="http://www.w3.org/1999/xlink"
   xmlns="http://www.w3.org/2000/svg"
   xmlns:svg="http://www.w3.org/2000/svg"><sodipodi:namedview
     id="namedview1"
     pagecolor="#ffffff"
     bordercolor="#000000"
     borderopacity="0.25"
     inkscape:showpageshadow="2"
     inkscape:pageopacity="0.0"
     inkscape:pagecheckerboard="0"
     inkscape:deskcolor="#d1d1d1"
     inkscape:document-units="mm" /><defs
     id="defs1"><style
       type="text/css"
       id="style1">*{stroke-linecap:butt;stroke-linejoin:round;}</style><path
       d="m 1088.0356,-45.373762 v 0.012 h 5.7574 5.7574 5.7574 5.7574 5.7574 5.7574 5.7574 5.7574 5.7573 5.7574 5.7574 5.7574 5.7574 5.7574 5.7574 5.7574 5.7574 5.7574 5.7573 5.7574 5.7574 5.7574 5.7574 5.7574 5.7574 5.7574 5.7574 5.7574 5.7573 5.7574 5.7574 5.7574 5.7574 5.7574 5.7574 5.7574 5.7574 5.7574 5.7574 5.7573 5.7574 5.7574 5.7574 5.7574 5.7574 5.7574 5.7574 5.7574 5.7574 v -0.205734 0 l -5.7574,-0.05258 -5.7574,-0.06589 -5.7574,-0.0825 -5.7574,-0.103183 -5.7574,-0.128898 -5.7574,-0.160799 -5.7574,-0.200276 -5.7574,-0.248999 -5.7574,-0.308943 -5.7573,-0.382436 -5.7574,-0.47218 -5.7574,-0.581277 -5.7574,-0.713218 -5.7574,-0.871861 -5.7574,-1.06134 -5.7574,-1.28592 -5.7574,-1.549764 -5.7574,-1.856567 -5.7574,-2.209054 -5.7574,-2.608287 -5.7573,-3.052761 -5.7574,-3.537278 -5.7574,-4.05161 -5.7574,-4.578988 -5.7574,-5.094559 -5.7574,-5.563998 -5.7574,-5.942606 -5.7574,-6.175355 -5.7574,-6.198471 -5.7574,-5.94322 -5.7573,-5.3427 -5.7574,-4.34179 -5.7574,-2.91073 -5.7574,-1.0608 -5.7574,1.13989 -5.7574,3.55462 -5.7574,5.97613 -5.7574,8.1405 -5.7574,9.762227 -5.7574,10.590154 -5.7573,10.476046 -5.7574,9.436186 -5.7574,7.678187 -5.7574,5.567243 -5.7574,3.525843 -5.7574,1.896932 -5.7574,0.834381 -5.7574,0.284499 z"
       id="m291e41fc1f"
       style="stroke:#808080" /><clipPath
       id="pe2eeba3768-2-4"><rect
         height="105.25944"
         width="182.10664"
         x="1120.0958"
         y="557.13879"
         id="rect495-0-3" /></clipPath></defs><g
     inkscape:label="Ebene 1"
     inkscape:groupmode="layer"
     id="layer1"
     transform="translate(-291.81119,-330.49477)"><g
       id="PolyCollection_6"
       style="stroke-linecap:butt;stroke-linejoin:round"
       transform="matrix(0.35277777,0,0,0.35277777,-103.33373,124.8417)"><defs
         id="defs309" /><g
         clip-path="url(#pe2eeba3768-2-4)"
         id="g310"
         style="stroke-linecap:butt;stroke-linejoin:round"><use
           style="fill:#808080;stroke:#808080;stroke-linecap:butt;stroke-linejoin:round"
           x="0"
           xlink:href="#m291e41fc1f"
           y="707.76001"
           id="use310" /></g></g></g></svg>
